name C:\Users\antoi\Documents\MyRepositories\upper-imu-dc\Results\main_tracking\Case_69\FLX01_angularVelocities_bodyFrame.mot
datacolumns 4
datarows 129
range 5.01000000 6.29000000
endheader 
time	radius_imu_x	radius_imu_y	radius_imu_z	
          5.01000000	          1.60330829	         -0.66032498	         -0.02187359	
          5.02000000	          1.59198004	         -0.68539681	         -0.00470097	
          5.03000000	          1.57643121	         -0.70625706	          0.01251856	
          5.04000000	          1.55759944	         -0.72329088	          0.02940503	
          5.05000000	          1.53635074	         -0.73666454	          0.04564356	
          5.06000000	          1.51347153	         -0.74625686	          0.06097276	
          5.07000000	          1.48966347	         -0.75164925	          0.07517366	
          5.08000000	          1.46554360	         -0.75219908	          0.08806017	
          5.09000000	          1.44164960	         -0.74718578	          0.09947259	
          5.10000000	          1.41844765	         -0.73599053	          0.10927668	
          5.11000000	          1.39633811	         -0.71824621	          0.11736876	
          5.12000000	          1.37565626	         -0.69390803	          0.12368510	
          5.13000000	          1.35666688	         -0.66324271	          0.12821295	
          5.14000000	          1.33955961	         -0.62676917	          0.13099551	
          5.15000000	          1.32443144	         -0.58522254	          0.13213247	
          5.16000000	          1.31125556	         -0.53957002	          0.13175797	
          5.17000000	          1.29992023	         -0.49088667	          0.13001659	
          5.18000000	          1.29040138	         -0.43990322	          0.12710963	
          5.19000000	          1.28266805	         -0.38739728	          0.12329105	
          5.20000000	          1.27646596	         -0.33492441	          0.11879835	
          5.21000000	          1.27142383	         -0.28455345	          0.11383949	
          5.22000000	          1.26731329	         -0.23795730	          0.10864006	
          5.23000000	          1.26398563	         -0.19631206	          0.10342188	
          5.24000000	          1.26122715	         -0.16062986	          0.09834383	
          5.25000000	          1.25880590	         -0.13168140	          0.09348799	
          5.26000000	          1.25651379	         -0.10989712	          0.08886170	
          5.27000000	          1.25418394	         -0.09537534	          0.08440257	
          5.28000000	          1.25169960	         -0.08795385	          0.07998087	
          5.29000000	          1.24900124	         -0.08731192	          0.07541495	
          5.30000000	          1.24608704	         -0.09305832	          0.07049531	
          5.31000000	          1.24300428	         -0.10479890	          0.06500855	
          5.32000000	          1.23983888	         -0.12217829	          0.05875517	
          5.33000000	          1.23670022	         -0.14488837	          0.05156439	
          5.34000000	          1.23369962	         -0.17265504	          0.04330582	
          5.35000000	          1.23094020	         -0.20521794	          0.03387737	
          5.36000000	          1.22852752	         -0.24232576	          0.02317899	
          5.37000000	          1.22653725	         -0.28368507	          0.01113571	
          5.38000000	          1.22499020	         -0.32891881	         -0.00227334	
          5.39000000	          1.22391191	         -0.37762198	         -0.01711215	
          5.40000000	          1.22333537	         -0.42935431	         -0.03348382	
          5.41000000	          1.22323981	         -0.48353196	         -0.05140702	
          5.42000000	          1.22360641	         -0.53948181	         -0.07089039	
          5.43000000	          1.22442673	         -0.59643298	         -0.09193523	
          5.44000000	          1.22566263	         -0.65345379	         -0.11447520	
          5.45000000	          1.22726249	         -0.70947194	         -0.13839716	
          5.46000000	          1.22920222	         -0.76334588	         -0.16360172	
          5.47000000	          1.23145012	         -0.81385327	         -0.18996348	
          5.48000000	          1.23394802	         -0.85970231	         -0.21730424	
          5.49000000	          1.23665517	         -0.89962183	         -0.24544359	
          5.50000000	          1.23953482	         -0.93238294	         -0.27418533	
          5.51000000	          1.24254472	         -0.95682108	         -0.30331086	
          5.52000000	          1.24563512	         -0.97185332	         -0.33257572	
          5.53000000	          1.24874280	         -0.97650302	         -0.36170509	
          5.54000000	          1.25179080	         -0.96992897	         -0.39039121	
          5.55000000	          1.25469074	         -0.95146464	         -0.41829220	
          5.56000000	          1.25734934	         -0.92067670	         -0.44503677	
          5.57000000	          1.25967580	         -0.87743148	         -0.47023241	
          5.58000000	          1.26158822	         -0.82196403	         -0.49347622	
          5.59000000	          1.26301911	         -0.75494117	         -0.51436978	
          5.60000000	          1.26391722	         -0.67750621	         -0.53253432	
          5.61000000	          1.26424525	         -0.59129278	         -0.54762495	
          5.62000000	          1.26397539	         -0.49840123	         -0.55934335	
          5.63000000	          1.26308447	         -0.40133481	         -0.56744945	
          5.64000000	          1.26155079	         -0.30289593	         -0.57177241	
          5.65000000	          1.25935368	         -0.20604069	         -0.57221915	
          5.66000000	          1.25647373	         -0.11368971	         -0.56877986	
          5.67000000	          1.25289106	         -0.02850126	         -0.56152939	
          5.68000000	          1.24857918	          0.04737057	         -0.55062340	
          5.69000000	          1.24349593	          0.11248532	         -0.53628985	
          5.70000000	          1.23757630	          0.16622898	         -0.51881487	
          5.71000000	          1.23072988	          0.20878230	         -0.49852316	
          5.72000000	          1.22284449	          0.24095065	         -0.47575618	
          5.73000000	          1.21379421	          0.26391210	         -0.45085273	
          5.74000000	          1.20344942	          0.27894924	         -0.42413573	
          5.75000000	          1.19168768	          0.28721303	         -0.39590697	
          5.76000000	          1.17840503	          0.28954990	         -0.36644993	
          5.77000000	          1.16352764	          0.28640626	         -0.33603886	
          5.78000000	          1.14702178	          0.27781015	         -0.30495086	
          5.79000000	          1.12890022	          0.26342023	         -0.27347738	
          5.80000000	          1.10922421	          0.24263034	         -0.24193264	
          5.81000000	          1.08810065	          0.21471742	         -0.21065660	
          5.82000000	          1.06567397	          0.17901793	         -0.18001177	
          5.83000000	          1.04211306	          0.13511035	         -0.15037349	
          5.84000000	          1.01759447	          0.08297296	         -0.12211423	
          5.85000000	          0.99228284	          0.02308908	         -0.09558288	
          5.86000000	          0.96630892	         -0.04351103	         -0.07108330	
          5.87000000	          0.93975426	         -0.11527211	         -0.04885399	
          5.88000000	          0.91263910	         -0.19018445	         -0.02905308	
          5.89000000	          0.88491505	         -0.26588842	         -0.01175155	
          5.90000000	          0.85646915	         -0.33980799	          0.00306563	
          5.91000000	          0.82713709	         -0.40930934	          0.01549107	
          5.92000000	          0.79672403	         -0.47187864	          0.02568366	
          5.93000000	          0.76503052	         -0.52529929	          0.03385550	
          5.94000000	          0.73188008	         -0.56779602	          0.04025678	
          5.95000000	          0.69714464	         -0.59812130	          0.04515875	
          5.96000000	          0.66076311	         -0.61558110	          0.04883770	
          5.97000000	          0.62275113	         -0.62001139	          0.05156252	
          5.98000000	          0.58320436	         -0.61171947	          0.05358519	
          5.99000000	          0.54229445	         -0.59139956	          0.05513468	
          6.00000000	          0.50025900	         -0.56003784	          0.05641460	
          6.01000000	          0.45739050	         -0.51882989	          0.05760287	
          6.02000000	          0.41402524	         -0.46912403	          0.05885232	
          6.03000000	          0.37053281	         -0.41239066	          0.06029116	
          6.04000000	          0.32730636	         -0.35020182	          0.06202240	
          6.05000000	          0.28475548	         -0.28420873	          0.06411792	
          6.06000000	          0.24330095	         -0.21610751	          0.06661567	
          6.07000000	          0.20335209	         -0.14756673	          0.06951026	
          6.08000000	          0.16527851	         -0.08016749	          0.07276343	
          6.09000000	          0.12939649	         -0.01530927	          0.07629583	
          6.10000000	          0.09595309	          0.04586073	          0.07998896	
          6.11000000	          0.06512036	          0.10244899	          0.08371159	
          6.12000000	          0.03698739	          0.15385074	          0.08729834	
          6.13000000	          0.01154417	          0.19968657	          0.09060579	
          6.14000000	         -0.01131117	          0.23981018	          0.09348685	
          6.15000000	         -0.03172711	          0.27424184	          0.09580842	
          6.16000000	         -0.04994240	          0.30293687	          0.09751070	
          6.17000000	         -0.06549277	          0.32624176	          0.09859907	
          6.18000000	         -0.07540043	          0.34150244	          0.09916831	
          6.19000000	         -0.07734004	          0.34130502	          0.09934374	
          6.20000000	         -0.07331749	          0.32690702	          0.09901008	
          6.21000000	         -0.06656880	          0.30646131	          0.09799313	
          6.22000000	         -0.05880338	          0.28198510	          0.09637271	
          6.23000000	         -0.05057660	          0.25336737	          0.09419175	
          6.24000000	         -0.04211639	          0.22122898	          0.09145847	
          6.25000000	         -0.03364193	          0.18624257	          0.08820607	
          6.26000000	         -0.02534370	          0.14926430	          0.08447503	
          6.27000000	         -0.01739290	          0.11111613	          0.08032355	
          6.28000000	         -0.00993261	          0.07255905	          0.07582299	
          6.29000000	         -0.00308128	          0.03422957	          0.07106315	
